<svg id="Capa_1" enable-background="new 0 0 511.94 511.94" height="512" viewBox="0 0 511.94 511.94" width="512" xmlns="http://www.w3.org/2000/svg"><g><path style="fill:#515fbc;" d="m363.399 324.272h-184.858c-4.142 0-7.5 3.358-7.5 7.5s3.358 7.5 7.5 7.5h184.858c4.142 0 7.5-3.358 7.5-7.5s-3.357-7.5-7.5-7.5zm0-45h-184.858c-4.142 0-7.5 3.358-7.5 7.5s3.358 7.5 7.5 7.5h184.858c4.142 0 7.5-3.358 7.5-7.5s-3.357-7.5-7.5-7.5zm0 90h-184.858c-4.142 0-7.5 3.358-7.5 7.5s3.358 7.5 7.5 7.5h184.858c4.142 0 7.5-3.358 7.5-7.5s-3.357-7.5-7.5-7.5zm0 45h-184.858c-4.142 0-7.5 3.358-7.5 7.5s3.358 7.5 7.5 7.5h184.858c4.142 0 7.5-3.358 7.5-7.5s-3.357-7.5-7.5-7.5zm71.796-67.5c4.142 0 7.5-3.358 7.5-7.5v-311.772c0-15.164-12.336-27.5-27.5-27.5h-318.45c-15.164 0-27.5 12.336-27.5 27.5v467.663c-.143 9.922 9.711 18.682 19.057 13.244l15.668-9.002c.019-.011.039-.019.058-.029.081-.046.162-.08.243-.122 1.554-.784 3.418-.749 4.937.123l17.208 9.887c6.205 3.565 13.93 3.572 20.146 0l17.212-9.888c1.596-.917 3.576-.917 5.172 0l17.21 9.887c3.107 1.785 6.591 2.677 10.075 2.675 3.484.001 6.968-.89 10.075-2.675l17.211-9.888c1.595-.918 3.571-.916 5.167 0l17.206 9.886c3.105 1.784 6.587 2.676 10.068 2.676 3.489.004 6.98-.887 10.091-2.676l17.206-9.886c1.594-.917 3.571-.917 5.166-.001l17.211 9.889c3.494 2.007 7.464 2.884 11.375 2.633 3.045-.193 6.054-1.071 8.775-2.633l17.211-9.888c1.596-.917 3.576-.917 5.172 0l17.211 9.888c3.5 2.01 7.443 2.884 11.377 2.633 3.043-.194 6.051-1.072 8.77-2.634l17.208-9.887c1.516-.872 3.377-.906 4.93-.126.083.043.166.077.249.125.02.012.042.02.062.032l15.664 9c9.223 5.314 19.17-3.178 19.057-13.244v-120.89c0-4.142-3.358-7.5-7.5-7.5s-7.5 3.358-7.5 7.5v119.166c-1.417-.82-12.269-7.098-13.503-7.704-6.044-2.972-13.03-2.76-18.938.635l-17.217 9.889c-1.597.917-3.578.917-5.174 0l-17.21-9.888c-3.104-1.783-6.585-2.674-10.066-2.674-3.486-.003-6.972.888-10.082 2.674l-17.213 9.889c-1.596.917-3.574.916-5.17-.001l-17.205-9.886c-3.11-1.786-6.596-2.678-10.082-2.676-3.483-.001-6.967.89-10.074 2.674l-17.21 9.887c-1.594.916-3.569.916-5.163 0l-17.21-9.888c-3.108-1.785-6.593-2.676-10.077-2.674-3.485-.002-6.971.889-10.08 2.676l-17.205 9.886c-1.596.917-3.574.918-5.17 0l-17.213-9.888c-6.212-3.567-13.936-3.568-20.148.001l-17.209 9.887c-1.597.918-3.578.918-5.175.001l-17.216-9.889c-5.909-3.394-12.895-3.606-18.938-.635-1.06.521-12.397 7.092-13.503 7.704v-465.938c0-6.893 5.607-12.5 12.5-12.5h318.45c6.893 0 12.5 5.607 12.5 12.5v311.772c.003 4.143 3.361 7.5 7.503 7.5zm-286.654-67.499c-4.142 0-7.5 3.358-7.5 7.5s3.358 7.5 7.5 7.5 7.5-3.358 7.5-7.5-3.358-7.5-7.5-7.5zm0 45c-4.142 0-7.5 3.358-7.5 7.5s3.358 7.5 7.5 7.5 7.5-3.358 7.5-7.5-3.358-7.5-7.5-7.5zm0 90c-4.142 0-7.5 3.358-7.5 7.5s3.358 7.5 7.5 7.5 7.5-3.358 7.5-7.5-3.358-7.5-7.5-7.5zm0-45c-4.142 0-7.5 3.358-7.5 7.5s3.358 7.5 7.5 7.5 7.5-3.358 7.5-7.5-3.358-7.5-7.5-7.5zm87.05-143.523c-3.719-2.433-8.799-1.138-10.839 2.968-1.705 3.431-.377 7.633 2.835 9.721 7.904 5.137 13.451 6.833 20.31 7.335v5.593c0 4.107 3.164 7.688 7.269 7.811 4.247.128 7.731-3.278 7.731-7.497v-6.594c13.816-3.223 22.683-14.898 24.619-26.412 2.486-14.786-5.241-27.64-19.686-32.746-1.622-.574-3.278-1.17-4.933-1.789v-28.097c2.099.659 3.739 1.56 4.768 2.219 3.422 2.191 8.074 1.237 10.485-2.022 3.163-4.274.383-9.01-3.633-11.342-2.768-1.607-6.715-3.39-11.62-4.266v-4.955c0-4.107-3.164-7.688-7.269-7.811-4.247-.128-7.731 3.278-7.731 7.497v5.809c-.7.171-1.407.357-2.125.573-9.558 2.879-16.697 11.046-18.633 21.314-1.771 9.398 1.264 18.48 7.92 23.702 3.3 2.588 7.356 4.959 12.837 7.44v36.517c-4.328-.468-7.374-1.742-12.305-4.968zm27.306-25.653c10.966 3.916 10.295 13.302 9.826 16.091-.856 5.095-4.197 10.471-9.826 13.11zm-18.58-25.138c-2.2-1.725-3.156-5.305-2.437-9.121.589-3.123 2.473-6.798 6.017-8.787v20.317c-1.32-.781-2.528-1.584-3.58-2.409zm134.082-84.687v-27.772c0-9.649-7.851-17.5-17.5-17.5h-127.004c-4.142 0-7.5 3.358-7.5 7.5s3.358 7.5 7.5 7.5h127.005c1.378 0 2.5 1.122 2.5 2.5v27.772c0 1.378-1.122 2.5-2.5 2.5h-209.859c-1.378 0-2.5-1.122-2.5-2.5v-27.772c0-1.378 1.122-2.5 2.5-2.5h47.854c4.142 0 7.5-3.358 7.5-7.5s-3.358-7.5-7.5-7.5h-47.854c-9.649 0-17.5 7.851-17.5 17.5v27.772c0 9.649 7.851 17.5 17.5 17.5h209.858c9.65 0 17.5-7.851 17.5-17.5z"/></g></svg>